<svg width="157" height="30" viewBox="0 0 157 30" fill="none" xmlns="http://www.w3.org/2000/svg">
<path d="M30 15C30 23.2843 23.2843 30 15 30C6.71573 30 0 23.2843 0 15C0 6.71573 6.71573 0 15 0C23.2843 0 30 6.71573 30 15ZM3 15C3 21.6274 8.37258 27 15 27C21.6274 27 27 21.6274 27 15C27 8.37258 21.6274 3 15 3C8.37258 3 3 8.37258 3 15Z" fill="#080808"/>
<path d="M43.856 24H46.232V9.288H51.992V7.2H38.096V9.288H43.856V24Z" fill="#080808"/>
<path d="M56.1733 13.416V11.28H53.9653V24H56.2692V17.664C56.2692 14.88 57.8052 13.368 60.2772 13.368C60.4452 13.368 60.6133 13.368 60.8053 13.392V11.16C58.5733 11.16 56.9893 11.928 56.1733 13.416Z" fill="#080808"/>
<path d="M68.2535 11.16C66.2135 11.16 64.3175 11.736 62.9975 12.792L63.9575 14.52C64.9415 13.68 66.4775 13.152 67.9895 13.152C70.2695 13.152 71.3975 14.28 71.3975 16.224V16.68H67.7495C63.9575 16.68 62.6375 18.36 62.6375 20.4C62.6375 22.608 64.4615 24.144 67.3415 24.144C69.3335 24.144 70.7495 23.472 71.5175 22.32V24H73.7015V16.32C73.7015 12.84 71.7335 11.16 68.2535 11.16ZM67.7255 22.368C65.9735 22.368 64.9175 21.576 64.9175 20.304C64.9175 19.224 65.5655 18.336 67.8455 18.336H71.3975V20.112C70.8215 21.576 69.4535 22.368 67.7255 22.368Z" fill="#080808"/>
<path d="M86.7309 11.28L82.2669 21.48L77.8989 11.28H75.4989L81.0669 24H83.4189L88.9869 11.28H86.7309Z" fill="#080808"/>
<path d="M102.282 17.712C102.282 13.8 99.6656 11.16 95.9936 11.16C92.3216 11.16 89.6096 13.872 89.6096 17.64C89.6096 21.432 92.3456 24.144 96.4496 24.144C98.5616 24.144 100.314 23.424 101.466 22.08L100.194 20.592C99.2576 21.624 98.0096 22.128 96.5216 22.128C94.0016 22.128 92.2016 20.64 91.9136 18.408H102.234C102.258 18.192 102.282 17.904 102.282 17.712ZM95.9936 13.104C98.2256 13.104 99.8336 14.616 100.074 16.752H91.9136C92.1536 14.592 93.7856 13.104 95.9936 13.104Z" fill="#080808"/>
<path d="M105.481 24H107.785V6.192H105.481V24Z" fill="#080808"/>
<path d="M117.632 24.144C121.448 24.144 124.232 21.432 124.232 17.64C124.232 13.848 121.448 11.16 117.632 11.16C113.816 11.16 111.008 13.848 111.008 17.64C111.008 21.432 113.816 24.144 117.632 24.144ZM117.632 22.128C115.184 22.128 113.336 20.352 113.336 17.64C113.336 14.928 115.184 13.176 117.632 13.176C120.08 13.176 121.904 14.928 121.904 17.64C121.904 20.352 120.08 22.128 117.632 22.128Z" fill="#080808"/>
<path d="M137.402 11.28V13.248C136.322 11.856 134.594 11.16 132.698 11.16C129.026 11.16 126.242 13.632 126.242 17.304C126.242 20.976 129.026 23.472 132.698 23.472C134.522 23.472 136.178 22.824 137.282 21.504V22.512C137.282 25.392 135.914 26.784 132.914 26.784C131.042 26.784 129.194 26.136 128.018 25.128L126.914 26.904C128.306 28.152 130.658 28.8 132.986 28.8C137.306 28.8 139.586 26.76 139.586 22.272V11.28H137.402ZM132.962 21.456C130.394 21.456 128.57 19.752 128.57 17.304C128.57 14.832 130.394 13.176 132.962 13.176C135.506 13.176 137.33 14.832 137.33 17.304C137.33 19.752 135.506 21.456 132.962 21.456Z" fill="#080808"/>
<path d="M149.437 24.144C153.253 24.144 156.037 21.432 156.037 17.64C156.037 13.848 153.253 11.16 149.437 11.16C145.621 11.16 142.813 13.848 142.813 17.64C142.813 21.432 145.621 24.144 149.437 24.144ZM149.437 22.128C146.989 22.128 145.141 20.352 145.141 17.64C145.141 14.928 146.989 13.176 149.437 13.176C151.885 13.176 153.709 14.928 153.709 17.64C153.709 20.352 151.885 22.128 149.437 22.128Z" fill="#080808"/>
</svg>
